<?xml version="1.0" standalone="no"?>
<!DOCTYPE svg PUBLIC "-//W3C//DTD SVG 20010904//EN"
 "http://www.w3.org/TR/2001/REC-SVG-20010904/DTD/svg10.dtd">
<svg version="1.0" xmlns="http://www.w3.org/2000/svg"
 width="1184.000000pt" height="1184.000000pt" viewBox="0 0 1184.000000 1184.000000"
 preserveAspectRatio="xMidYMid meet">
<metadata>
Created by potrace 1.11, written by Peter Selinger 2001-2013
</metadata>
<g transform="translate(0.000000,1184.000000) scale(0.100000,-0.100000)"
fill="#000000" stroke="none">
<path d="M18 11016 c8 -17 23 -42 32 -56 9 -14 30 -50 47 -80 16 -30 67 -118
111 -194 45 -76 82 -141 82 -143 0 -2 11 -20 23 -41 13 -20 104 -176 201 -346
98 -169 186 -322 196 -340 11 -17 25 -42 33 -56 7 -14 98 -171 202 -350 103
-179 199 -344 212 -367 28 -51 150 -262 163 -283 41 -67 100 -171 100 -176 0
-3 8 -18 19 -32 10 -15 29 -47 43 -72 14 -25 58 -101 98 -170 40 -69 84 -145
98 -170 39 -68 261 -453 272 -470 8 -14 140 -243 204 -354 16 -28 127 -220
246 -426 119 -206 228 -395 242 -420 14 -25 81 -142 150 -260 69 -118 136
-235 150 -260 14 -25 58 -101 98 -170 40 -68 81 -138 90 -155 9 -16 77 -133
150 -260 73 -126 141 -243 150 -260 10 -16 33 -57 52 -90 31 -54 117 -203 170
-294 11 -19 121 -210 246 -425 124 -215 236 -411 250 -436 13 -24 32 -57 43
-71 10 -15 19 -29 19 -32 0 -3 27 -50 59 -105 32 -55 72 -124 88 -154 17 -29
63 -109 103 -178 40 -69 84 -144 97 -167 12 -23 53 -93 89 -155 37 -62 78
-133 92 -158 14 -25 80 -139 147 -255 67 -115 156 -271 199 -345 43 -74 82
-142 86 -150 65 -110 102 -173 122 -210 65 -114 141 -246 147 -255 5 -5 22
-35 38 -65 17 -30 54 -95 83 -145 29 -49 64 -111 79 -136 104 -185 277 -479
281 -479 4 0 239 403 263 450 4 8 20 35 35 60 15 25 55 95 90 155 35 61 67
117 72 125 20 32 129 221 213 370 8 14 47 81 87 150 40 69 82 140 92 158 10
18 52 92 93 163 41 71 109 189 151 262 42 72 109 188 149 257 40 69 86 149
104 178 17 29 31 57 31 62 0 6 5 10 10 10 6 0 10 5 10 11 0 6 22 48 49 93 26
44 113 193 192 331 79 137 149 259 156 270 7 11 16 27 20 35 4 8 36 65 72 125
36 61 66 112 66 115 0 3 8 16 17 30 22 35 275 473 311 540 16 30 33 60 38 65
7 9 233 399 286 495 14 25 41 72 61 105 34 59 209 361 242 420 10 17 127 219
260 450 134 231 254 439 267 463 13 23 54 93 90 155 36 62 76 132 90 156 14
24 133 231 265 460 133 229 252 436 266 461 14 25 28 50 32 55 5 6 23 37 40
70 18 33 39 67 46 76 8 8 14 18 14 22 0 4 22 44 49 89 26 46 99 171 161 278
117 203 124 214 198 345 25 44 65 113 89 152 24 40 43 75 43 79 0 3 14 26 30
51 16 24 30 45 30 47 0 2 31 57 69 122 37 66 135 234 216 374 81 140 155 269
165 285 186 323 298 517 340 590 29 50 62 106 72 125 65 114 143 249 159 276
l19 31 -2278 2 -2277 1 -61 -107 c-34 -60 -112 -194 -173 -300 -61 -106 -278
-481 -482 -835 -204 -354 -403 -699 -443 -768 -40 -69 -101 -176 -137 -237
-35 -62 -66 -113 -69 -113 -3 0 -59 94 -124 208 -66 114 -150 259 -186 322
-37 63 -179 309 -315 545 -137 237 -304 526 -372 644 -69 118 -133 231 -144
250 -11 20 -34 61 -52 91 -18 31 -63 111 -102 178 l-70 122 -2276 -1 -2276 -1
15 -32z"/>
</g>
</svg>
